:SAMPLES-PER-SECOND 30
:FULLY-SPECIFIED
:DEGREES
312
root  -67.8995 40.2733 1.93376 179.461 68.0013 174.369
RightUpLeg  5.23315 -10.7214 -1.7192
RightLeg  11.4471 -24.9481 2.88342
RightFoot  -18.6214 -0.0117863 1.7853
RightToes  0.000482159 0.542163 -0.142577
Spine  11.0836 -0.748908 6.07365
Spine1  3.06718 1.08299 -5.73117
HEad  -21.9227 -4.60002 0.89358
LeftShoulder1  8.61908 -12.5887 -46.7281
LeftArm  -11.2282 22.6726 -24.4412
LeftForeArm  31.0219 -25.7869 -3.88497
LeftHand  -0.25398 0.0180481 5.50724
RightShoulder  4.67531 7.88612 35.0841
RightArm  0.0295608 -14.7957 39.7183
RightForeArm  3.29941 26.5955 5.52578
RightHand  -1.6204 5.10299 -18.1437
LeftUpLeg  -41.4476 60.4421 -32.9276
LeftLeg  18.7101 21.0175 7.20691
LeftFoot  -3.441 -0.695902 10.4341
LeftToes  1.06246e-005 4.65855e-005 -8.18503e-006
313
root  -68.6979 40.3703 2.12061 -178.688 69.8707 176.465
RightUpLeg  3.71722 -10.3454 -1.06775
RightLeg  11.6319 -23.9294 3.16125
RightFoot  -17.9627 -0.084833 0.631315
RightToes  0.000482159 0.542163 -0.142577
Spine  11.7838 -0.754096 6.87291
Spine1  3.38367 0.815159 -4.44172
HEad  -22.7662 -3.93896 1.12364
LeftShoulder1  8.67623 -12.7559 -46.5503
LeftArm  -13.7104 21.0496 -24.6968
LeftForeArm  30.9267 -27.6261 -4.28693
LeftHand  -0.25398 0.0180481 5.50724
RightShoulder  4.86278 8.24452 35.4226
RightArm  1.5589 -14.1146 39.4449
RightForeArm  0.715898 23.4022 5.10969
RightHand  -1.80728 5.40342 -19.6357
LeftUpLeg  -43.9021 57.595 -30.4319
LeftLeg  23.8674 16.3971 8.28761
LeftFoot  0.6228 -0.736551 7.02481
LeftToes  1.06246e-005 4.65855e-005 -8.18503e-006
314
root  -69.3431 40.5167 2.27564 -178.188 71.3366 176.804
RightUpLeg  2.29151 -10.0863 -1.0483
RightLeg  11.5823 -22.6973 3.42333
RightFoot  -16.7608 -0.101991 0.254445
RightToes  0.000482159 0.542163 -0.142577
Spine  11.8187 -0.577181 6.61778
Spine1  3.14026 0.535433 -2.94536
HEad  -22.0466 -3.36425 1.99648
LeftShoulder1  8.66972 -12.842 -46.2627
LeftArm  -15.0623 20.1673 -24.7747
LeftForeArm  30.3336 -29.8175 -4.80986
LeftHand  -0.25398 0.0180481 5.50724
RightShoulder  4.97203 8.45039 35.6198
RightArm  1.16348 -14.2031 39.3419
RightForeArm  0.995264 19.1532 5.44704
RightHand  -1.8848 5.47824 -20.3117
LeftUpLeg  -41.1737 53.1 -23.8076
LeftLeg  27.2713 12.1841 7.07352
LeftFoot  3.36925 -0.434011 3.15709
LeftToes  1.06246e-005 4.65855e-005 -8.18503e-006
315
root  -69.8758 40.6867 2.36442 -179.864 72.4823 174.9
RightUpLeg  1.3311 -9.77991 -1.64235
RightLeg  11.0439 -21.5955 3.51652
RightFoot  -15.5328 -0.0924799 0.34454
RightToes  0.000482159 0.542163 -0.142577
Spine  11.7384 -0.432066 5.96817
Spine1  2.57438 0.33616 -1.94601
HEad  -20.418 -3.43851 3.03576
LeftShoulder1  8.58761 -12.7996 -45.9338
LeftArm  -15.3544 19.5097 -24.6019
LeftForeArm  30.1713 -32.0915 -5.35339
LeftHand  -0.25398 0.0180481 5.50724
RightShoulder  4.9874 8.45204 35.7398
RightArm  -2.44896 -15.1401 39.2709
RightForeArm  5.78969 15.1529 6.38726
RightHand  -1.76887 5.16683 -19.633
LeftUpLeg  -37.2201 47.2601 -17.7192
LeftLeg  29.098 8.50004 5.43428
LeftFoot  3.08194 -0.0217598 -0.0139199
LeftToes  1.06246e-005 4.65855e-005 -8.18503e-006
316
root  -70.3242 40.8509 2.3709 176.94 73.5651 171.702
RightUpLeg  0.839734 -9.84917 -2.5855
RightLeg  10.4305 -20.4297 3.422
RightFoot  -14.5364 -0.0929322 0.185946
RightToes  0.000482159 0.542163 -0.142577
Spine  11.725 -0.356431 5.6897
Spine1  2.25674 0.343675 -1.73765
HEad  -19.0402 -4.04721 3.26724
LeftShoulder1  8.47396 -12.702 -45.5873
LeftArm  -15.4055 18.8002 -24.4576
LeftForeArm  31.0754 -34.3614 -5.86374
LeftHand  -0.25398 0.0180481 5.50724
RightShoulder  4.96238 8.39918 35.7152
RightArm  -5.24102 -16.6692 39.2842
RightForeArm  9.21304 12.7133 6.70676
RightHand  -1.54569 4.25272 -18.7969
LeftUpLeg  -32.7231 40.3217 -12.3507
LeftLeg  30.1935 6.65964 4.51508
LeftFoot  0.519228 0.191154 -1.86341
LeftToes  1.06246e-005 4.65855e-005 -8.18503e-006
317
root  -70.7132 40.9848 2.30283 173.667 74.9143 168.529
RightUpLeg  0.387075 -10.1057 -3.52035
RightLeg  10.142 -18.9559 3.3752
RightFoot  -13.6107 -0.0966897 -0.232945
RightToes  0.000482159 0.542163 -0.142577
Spine  11.51 -0.237971 6.10465
Spine1  2.39933 0.60949 -2.08132
HEad  -18.3044 -4.59804 2.90454
LeftShoulder1  8.41803 -12.6645 -45.3843
LeftArm  -15.6967 18.1619 -24.4601
LeftForeArm  32.8916 -36.5223 -6.32073
LeftHand  -0.25398 0.0180481 5.50724
RightShoulder  4.93156 8.38301 35.5168
RightArm  -5.89847 -18.4506 39.1654
RightForeArm  9.67928 12.0637 6.74975
RightHand  -1.33819 3.12999 -18.3839
LeftUpLeg  -28.6506 33.3409 -8.08707
LeftLeg  30.8222 6.12353 4.27349
LeftFoot  -2.5875 0.231045 -2.80535
LeftToes  1.06246e-005 4.65855e-005 -8.18503e-006
318
root  -71.0645 41.0697 2.17782 171.042 76.6972 165.929
RightUpLeg  -0.33948 -10.3642 -4.19813
RightLeg  10.2635 -16.9834 3.43397
RightFoot  -12.7806 -0.0933851 -0.538172
RightToes  0.000482159 0.542163 -0.142577
Spine  11.0758 -0.0418297 6.96902
Spine1  2.69191 1.00937 -2.50549
HEad  -18.0234 -4.60034 2.29883
LeftShoulder1  8.43463 -12.6626 -45.4826
LeftArm  -16.302 17.8393 -24.4881
LeftForeArm  34.9113 -38.4294 -6.72211
LeftHand  -0.25398 0.0180481 5.50724
RightShoulder  4.89169 8.34764 35.3082
RightArm  -5.64965 -20.2142 38.6748
RightForeArm  9.56469 12.698 6.59802
RightHand  -1.2167 2.628 -17.7623
LeftUpLeg  -25.1272 26.8759 -4.7824
LeftLeg  30.8087 5.95931 4.16374
LeftFoot  -5.37264 0.217879 -3.56326
LeftToes  1.06246e-005 4.65855e-005 -8.18503e-006
319
root  -71.3658 41.0985 2.01946 169.164 78.791 164.1
RightUpLeg  -1.20358 -10.4229 -4.43507
RightLeg  10.693 -14.9647 3.40895
RightFoot  -12.2539 -0.0886478 -0.712132
RightToes  0.000482159 0.542163 -0.142577
Spine  10.6018 0.108446 7.87043
Spine1  2.93892 1.29499 -2.632
HEad  -17.8496 -3.97357 1.53141
LeftShoulder1  8.46188 -12.609 -45.7917
LeftArm  -17.3638 18.0574 -24.5068
LeftForeArm  36.7196 -39.997 -7.06048
LeftHand  -0.25398 0.0180481 5.50724
RightShoulder  4.8526 8.26633 35.2622
RightArm  -6.39308 -21.602 37.9687
RightForeArm  9.67349 13.6581 6.17262
RightHand  -1.20016 2.82072 -17.1375
LeftUpLeg  -21.5739 21.0755 -2.14088
LeftLeg  29.6146 5.42003 3.66276
LeftFoot  -7.60788 0.187939 -4.35848
LeftToes  1.06246e-005 4.65855e-005 -8.18503e-006
